<?xml version="1.0" encoding="utf-8"?>
<!-- Generator: Adobe Illustrator 24.0.0, SVG Export Plug-In . SVG Version: 6.00 Build 0)  -->
<svg version="1.1" id="Layer_1" xmlns="http://www.w3.org/2000/svg" xmlns:xlink="http://www.w3.org/1999/xlink" x="0px" y="0px"
	 viewBox="0 0 40 40" style="enable-background:new 0 0 40 40;" xml:space="preserve">
<path d="M38.9,16.9H27.7c1.4-1.7,0.8-3.9,0.2-4.9c-0.3-0.6-0.3-1.2-0.3-1.8l4.6,0.9c0.1,0,0.1,0,0.1,0c0.3,0,0.6-0.2,0.6-0.5
	c0.1-0.3-0.1-0.7-0.5-0.8l-4.7-0.9c0.2-0.8,0.5-1.3,0.7-1.7l4,0.8c0.1,0,0.1,0,0.1,0c0.3,0,0.6-0.2,0.6-0.5c0.1-0.3-0.1-0.7-0.5-0.8
	L1.1,0.5C0.8,0.4,0.4,0.7,0.3,1s0.2,0.7,0.5,0.8L22,6c-0.2,0.4-0.4,1-0.6,1.7l-20.1-4C1,3.6,0.7,3.9,0.5,4.2C0.4,4.5,0.7,4.9,1,5
	l20.1,4c-0.1,0.8,0,1.6,0.4,2.5c0,0.1,0,0.1,0.1,0.1c0,0,1.3,2.2-0.3,3.6c-0.3,0.3-0.3,0.6,0,0.9c0.1,0.1,0.3,0.2,0.4,0.2
	c0.1,0,0.3-0.1,0.4-0.2c1.8-1.7,1.1-4.1,0.5-5.2c-0.3-0.6-0.3-1.2-0.3-1.8l1.2,0.3c-0.1,0.8,0,1.7,0.4,2.6c0,0.1,0,0.1,0.1,0.1
	s1.3,2.2-0.3,3.6c-0.3,0.3-0.3,0.6,0,0.9c0.1,0.1,0.2,0.1,0.3,0.2H0.8c-0.4,0-0.6,0.3-0.6,0.6v2.5c0,6.8,3.6,13.1,9.4,16.7v2.2
	c0,0.4,0.3,0.6,0.6,0.6h18.9c0.4,0,0.6-0.3,0.6-0.6v-2.2c5.9-3.5,9.4-9.9,9.4-16.7v-2.5C39.5,17.1,39.3,16.9,38.9,16.9z M26.5,8.7
	l-1.3-0.3c0.2-0.8,0.5-1.3,0.7-1.6l1.2,0.3C27,7.4,26.7,8,26.5,8.7z M22.8,7.9c0.2-0.8,0.5-1.3,0.7-1.7l1.2,0.3
	c-0.3,0.4-0.5,1-0.7,1.7L22.8,7.9z M24.8,16.7c1.8-1.7,1.1-4.1,0.5-5.2C25,10.9,25,10.2,25,9.6l1.3,0.3c-0.1,0.8,0,1.7,0.4,2.6
	c0,0.1,0,0.1,0.1,0.1c0,0,1.3,2.2-0.3,3.6c-0.2,0.2-0.3,0.4-0.2,0.6h-1.8C24.7,16.9,24.7,16.8,24.8,16.7z M1.8,18.1h36.5v1.3H1.8
	V18.1z M29.1,35.8c-0.2,0.1-0.3,0.3-0.3,0.6v1.9H11.2v-1.9c0-0.3-0.1-0.4-0.3-0.6C5.4,32.7,2,26.9,1.8,20.6h36.5
	C38,26.9,34.6,32.7,29.1,35.8z"/>
</svg>
